# Blender v3.0.0 OBJ File: 'room v2.blend'
# www.blender.org
mtllib room v2.mtl
o room_Plane
v -10.000001 0.000000 10.000001
v 10.000001 0.000000 10.000001
v -10.000001 0.000000 -10.000001
v 10.000001 0.000000 -10.000001
v -10.000001 9.000001 10.000001
v 10.000001 9.000001 10.000001
v -10.000001 9.000001 -10.000001
v 10.000001 9.000001 -10.000001
v 10.000001 7.261949 -10.000001
v 10.000001 7.261949 10.000001
v -10.000001 7.261949 10.000001
v -10.000001 7.261949 -10.000001
v 10.000001 2.340888 10.000001
v -10.000001 2.340888 -10.000001
v 10.000001 2.340888 -10.000001
v -10.000001 2.340888 10.000001
v -10.000001 0.000000 -6.000001
v -10.000001 0.000000 -2.000000
v -10.000001 0.000000 2.000000
v -10.000001 0.000000 6.000001
v 10.000001 0.000000 6.000001
v 10.000001 0.000000 2.000000
v 10.000001 0.000000 -2.000000
v 10.000001 0.000000 -6.000001
v -10.000001 9.000001 -6.000001
v -10.000001 9.000001 -2.000000
v -10.000001 9.000001 2.000000
v -10.000001 9.000001 6.000001
v 10.000001 9.000001 6.000001
v 10.000001 9.000001 2.000000
v 10.000001 9.000001 -2.000000
v 10.000001 9.000001 -6.000001
v -9.707982 2.416240 1.924648
v -9.707982 2.416240 2.075353
v -9.707982 2.265536 2.000000
v -10.000001 7.261949 -6.000001
v 10.000001 7.261949 -6.000001
v 10.000001 7.261949 -2.000000
v 10.000001 7.261949 2.000000
v 10.000001 7.261949 6.000001
v 10.000001 2.340888 -6.000001
v 10.000001 2.340888 -2.000000
v 10.000001 2.340888 2.000000
v 10.000001 2.340888 6.000001
v -9.707982 7.186597 1.924648
v -9.707982 7.337301 2.000000
v -9.707982 7.186597 2.075353
v -10.000001 2.340888 -6.000001
v -10.000001 7.186597 5.924649
v -10.000001 7.337301 6.075353
v -10.000001 7.337301 2.000000
v -10.000001 7.186597 1.924648
v -10.000001 7.186597 2.075353
v -10.000001 7.337301 -2.075353
v -10.000001 7.186597 -1.924648
v -10.000001 2.416240 5.924649
v -10.000001 2.265536 6.075353
v -10.000001 2.416240 2.075353
v -10.000001 2.416240 1.924648
v -10.000001 2.265536 2.000000
v -10.000001 2.416240 -1.924648
v -10.000001 2.265536 -2.075353
v -9.707982 7.186597 5.924649
v -9.707982 7.337301 6.075353
v -9.707982 7.337301 -2.075353
v -9.707982 7.186597 -1.924648
v -9.707982 2.265536 6.075353
v -9.707982 2.416240 5.924649
v -9.707982 2.416240 -1.924648
v -9.707982 2.265536 -2.075353
v 10.000001 0.347538 10.000001
v -10.000001 0.347538 -10.000001
v 10.000001 0.347538 -10.000001
v -10.000001 0.347538 10.000001
v -10.000001 0.347538 -6.000001
v 10.000001 0.347538 6.000001
v 10.000001 0.347538 2.000000
v 10.000001 0.347538 -2.000000
v 10.000001 0.347538 -6.000001
v -10.000001 0.336351 6.011188
v -10.000001 0.336351 2.000000
v -10.000001 0.336351 -2.011187
v -10.000001 8.982523 10.000001
v 10.000001 8.982523 10.000001
v -10.000001 8.982523 -10.000001
v 10.000001 8.982523 -10.000001
v -10.000001 8.982523 -6.000001
v -10.000001 8.982523 -2.000000
v -10.000001 8.982523 2.000000
v -10.000001 8.982523 6.000001
v 10.000001 8.982523 6.000001
v 10.000001 8.982523 2.000000
v 10.000001 8.982523 -2.000000
v 10.000001 8.982523 -6.000001
v 10.381093 9.000001 -6.000001
v 10.381093 9.000001 -10.000001
v 10.381093 7.261949 -10.000001
v 10.381093 7.261949 -6.000001
vt 0.391478 1.000000
vt 0.268451 1.000000
vt 0.268451 0.500000
vt 0.391478 0.500000
vt 0.500000 0.500000
vt 0.543451 0.500000
vt 0.543451 0.509527
vt 0.500000 0.509527
vt 0.500000 0.000000
vt 0.543451 0.000000
vt 0.225000 1.000000
vt 0.225000 0.500000
vt 0.666478 0.500000
vt 0.666478 0.000000
vt 0.766567 0.200000
vt 0.725000 0.200000
vt 0.725000 0.100000
vt 0.766567 0.098116
vt 0.941591 0.200000
vt 0.893362 0.200000
vt 0.893362 0.098116
vt 0.941591 0.099720
vt 0.716312 0.500000
vt 0.716312 0.000000
vt 0.441312 1.000000
vt 0.441312 0.500000
vt 0.941312 0.500000
vt 0.891478 0.500000
vt 0.891478 0.400000
vt 0.941312 0.400000
vt 0.893362 0.301884
vt 0.941591 0.300280
vt 0.216312 1.000000
vt 0.166478 1.000000
vt 0.166478 0.900000
vt 0.216312 0.900000
vt 0.166478 0.800000
vt 0.216312 0.800000
vt 0.166478 0.700000
vt 0.216312 0.700000
vt 0.166478 0.600000
vt 0.216312 0.600000
vt 0.043451 1.000000
vt 0.043451 0.900000
vt 0.043451 0.800000
vt 0.043451 0.700000
vt 0.043451 0.600000
vt 0.768451 0.500000
vt 0.768451 0.400000
vt 0.891478 0.000000
vt 0.941312 0.000000
vt 0.725000 0.400000
vt 0.725000 0.300000
vt 0.766567 0.301884
vt 0.725000 0.500000
vt 0.725000 0.000000
vt 0.768451 0.000000
vt 0.000000 1.000000
vt 0.000000 0.900000
vt 0.000000 0.800000
vt 0.000000 0.700000
vt 0.000000 0.600000
vt 0.225000 0.600000
vt 0.216312 0.500000
vt 0.225000 0.500000
vt 0.950000 0.100000
vt 0.950000 0.000000
vt 0.225000 0.700000
vt 0.225000 0.800000
vt 0.225000 0.900000
vt 0.225000 1.000000
vt 0.950000 0.300000
vt 0.950000 0.200000
vt 0.950000 0.400000
vt 0.950000 0.500000
vt 0.450000 1.000000
vt 0.450000 0.500000
vt 0.725000 0.500000
vt 0.725000 0.000000
vt 0.000000 0.100000
vt 0.000000 0.000000
vt 0.500000 0.000000
vt 0.500000 0.100000
vt 0.000000 0.500000
vt 0.000000 0.400000
vt 0.500000 0.400000
vt 0.500000 0.500000
vt 0.000000 0.300000
vt 0.500000 0.300000
vt 0.000000 0.200000
vt 0.500000 0.200000
vt 0.493451 0.500000
vt 0.493451 0.600000
vt 0.450000 0.600000
vt 0.450000 0.500000
vt 0.500000 0.609527
vt 0.500000 0.509527
vt 0.509527 0.509527
vt 0.509527 0.609527
vt 0.519055 0.509527
vt 0.519055 0.609527
vt 0.509527 0.609527
vt 0.509527 0.509527
vt 0.528582 0.509527
vt 0.528582 0.552979
vt 0.519055 0.552979
vt 0.519055 0.509527
vt 0.000000 0.800000
vt 1.000000 0.800000
vt 1.000000 1.000000
vt 0.000000 1.000000
vt 0.000000 0.000000
vt 1.000000 0.000000
vt 1.000000 0.200000
vt 0.000000 0.200000
vt 1.000000 0.400000
vt 0.000000 0.400000
vt 1.000000 0.600000
vt 0.000000 0.600000
vt 0.485260 1.619438
vt 0.476402 1.542619
vt 0.493130 1.559079
vt 0.872058 -0.192341
vt 0.862308 -0.243702
vt 1.019707 -0.688829
vt 1.036973 -0.637468
vt 0.457722 1.670799
vt 0.785249 2.064564
vt 0.797359 2.115926
vt 0.028982 0.619238
vt 0.043583 0.619238
vt 0.043583 0.380721
vt 0.028982 0.380721
vt 0.446854 1.593980
vt 0.364661 1.122182
vt 0.355185 1.173544
vt 1.028943 -0.560648
vt 1.008702 -0.612010
vt 0.861569 -0.191574
vt 0.871751 -0.140212
vt 0.285016 -1.082594
vt 0.295869 -1.133956
vt 0.365222 1.174311
vt 0.356118 1.225672
vt 0.036973 -0.637468
vt 0.019707 -0.688829
vt 0.028982 0.619238
vt 0.043583 0.619238
vt 0.043583 0.380721
vt 0.028982 0.380721
vt 0.034456 -0.628470
vt 0.008702 -0.612010
vt 0.786134 1.979515
vt 0.297055 -1.048906
vt 0.798744 2.030877
vt 0.464062 1.610440
vt 0.049552 -0.577109
vt 0.285801 -0.997545
vt 0.519877 0.021780
vt 0.489640 0.977080
vt 0.000000 0.954977
vt 0.056970 0.000000
vt 1.000000 0.044371
vt 0.997436 1.000000
vt 0.508790 0.977944
vt 0.537983 0.022632
vn 0.0000 0.0000 -1.0000
vn 0.0000 0.0000 1.0000
vn 1.0000 -0.0000 0.0000
vn -1.0000 0.0000 0.0000
vn 0.0000 -1.0000 0.0000
vn 0.0000 1.0000 0.0000
usemtl walls.001
s off
f 16/1/1 11/2/1 10/3/1 13/4/1
f 8/5/2 9/6/2 97/7/2 96/8/2
f 9/6/2 8/5/2 7/9/2 12/10/2
f 11/2/1 5/11/1 6/12/1 10/3/1
f 15/13/2 9/6/2 12/10/2 14/14/2
f 51/15/3 27/16/3 28/17/3 50/18/3
f 81/19/3 60/20/3 57/21/3 80/22/3
f 73/23/2 15/13/2 14/14/2 72/24/2
f 74/25/1 16/1/1 13/4/1 71/26/1
f 72/27/3 14/28/3 48/29/3 75/30/3
f 75/30/3 48/29/3 62/31/3 82/32/3
f 82/32/3 62/31/3 60/20/3 81/19/3
f 71/33/4 13/34/4 44/35/4 76/36/4
f 76/36/4 44/35/4 43/37/4 77/38/4
f 77/38/4 43/37/4 42/39/4 78/40/4
f 78/40/4 42/39/4 41/41/4 79/42/4
f 13/34/4 10/43/4 40/44/4 44/35/4
f 44/35/4 40/44/4 39/45/4 43/37/4
f 43/37/4 39/45/4 38/46/4 42/39/4
f 42/39/4 38/46/4 37/47/4 41/41/4
f 14/28/3 12/48/3 36/49/3 48/29/3
f 80/22/3 57/21/3 16/50/3 74/51/3
f 36/49/3 25/52/3 26/53/3 54/54/3
f 54/54/3 26/53/3 27/16/3 51/15/3
f 12/48/3 7/55/3 25/52/3 36/49/3
f 48/29/3 36/49/3 54/54/3 62/31/3
f 50/18/3 28/17/3 5/56/3 11/57/3
f 10/43/4 6/58/4 29/59/4 40/44/4
f 40/44/4 29/59/4 30/60/4 39/45/4
f 39/45/4 30/60/4 31/61/4 38/46/4
f 38/46/4 31/61/4 32/62/4 37/47/4
f 57/21/3 50/18/3 11/57/3 16/50/3
f 24/63/4 79/42/4 73/64/4 4/65/4
f 20/66/3 80/22/3 74/51/3 1/67/3
f 23/68/4 78/40/4 79/42/4 24/63/4
f 22/69/4 77/38/4 78/40/4 23/68/4
f 21/70/4 76/36/4 77/38/4 22/69/4
f 2/71/4 71/33/4 76/36/4 21/70/4
f 18/72/3 82/32/3 81/19/3 19/73/3
f 17/74/3 75/30/3 82/32/3 18/72/3
f 3/75/3 72/27/3 75/30/3 17/74/3
f 1/76/1 74/25/1 71/26/1 2/77/1
f 4/78/2 73/23/2 72/24/2 3/79/2
f 19/73/3 81/19/3 80/22/3 20/66/3
f 87/80/5 85/81/5 86/82/5 94/83/5
f 83/84/5 90/85/5 91/86/5 84/87/5
f 90/85/5 89/88/5 92/89/5 91/86/5
f 89/88/5 88/90/5 93/91/5 92/89/5
f 88/90/5 87/80/5 94/83/5 93/91/5
f 98/92/3 97/93/3 96/94/3 95/95/3
f 32/96/5 8/97/5 96/98/5 95/99/5
f 9/100/6 37/101/6 98/102/6 97/103/6
f 37/104/1 32/105/1 95/106/1 98/107/1
usemtl floor.001
f 17/108/6 24/109/6 4/110/6 3/111/6
f 1/112/6 2/113/6 21/114/6 20/115/6
f 20/115/6 21/114/6 22/116/6 19/117/6
f 19/117/6 22/116/6 23/118/6 18/119/6
f 18/119/6 23/118/6 24/109/6 17/108/6
usemtl window
f 46/120/3 47/121/3 45/122/3
f 62/123/5 70/124/5 35/125/5 60/126/5
f 51/127/6 46/120/6 65/128/6 54/129/6
f 49/130/1 63/131/1 68/132/1 56/133/1
f 53/134/5 47/121/5 63/135/5 49/136/5
f 59/137/6 33/138/6 69/139/6 61/140/6
f 57/141/2 67/142/2 64/143/2 50/144/2
f 50/144/6 64/143/6 46/120/6 51/127/6
f 60/145/5 35/146/5 67/142/5 57/141/5
f 52/147/1 45/148/1 33/149/1 59/150/1
f 34/151/3 35/146/3 33/152/3
f 64/143/3 63/135/3 47/121/3 46/120/3
f 46/120/3 45/122/3 66/153/3 65/128/3
f 68/154/3 67/142/3 35/146/3 34/151/3
f 33/138/3 35/125/3 70/124/3 69/139/3
f 69/139/3 70/124/3 65/128/3 66/153/3
f 34/151/3 33/152/3 45/122/3 47/121/3
f 67/142/3 68/154/3 63/135/3 64/143/3
f 61/140/2 69/139/2 66/153/2 55/155/2
f 55/155/5 66/153/5 45/122/5 52/156/5
f 54/129/1 65/128/1 70/124/1 62/123/1
f 58/157/2 34/151/2 47/121/2 53/134/2
f 56/158/6 68/154/6 34/151/6 58/157/6
usemtl glass
f 58/159/3 53/160/3 49/161/3 56/162/3
f 61/163/3 55/164/3 52/165/3 59/166/3
o hall_Plane.001
v 10.000001 0.000000 10.000001
v 12.000001 0.000000 10.000001
v 10.000001 0.000000 -9.999999
v 22.000000 0.000000 -9.999999
v 10.000001 0.000000 -5.999999
v 10.000001 0.000000 -1.999999
v 10.000001 0.000000 2.000001
v 10.000001 0.000000 6.000001
v 12.000001 0.000000 6.000001
v 12.000001 0.000000 2.000001
v 12.000001 0.000000 -1.999999
v 22.000000 0.000000 -5.999999
v 10.000001 9.000000 -9.999999
v 22.000000 9.000000 -9.999999
v 10.000001 9.000000 -5.999999
v 22.000000 9.000000 -5.999999
v 22.000000 3.500000 -9.999999
v 22.000000 6.750000 -9.999999
v 10.000001 3.500000 -5.999999
v 10.000001 6.750000 -5.999999
v 20.000000 0.000000 -9.999999
v 18.000000 0.000000 -9.999999
v 16.000000 0.000000 -9.999999
v 14.000001 0.000000 -9.999999
v 12.000001 0.000000 -9.999999
v 20.000000 9.000000 -5.999999
v 18.000000 9.000000 -5.999999
v 16.000000 9.000000 -5.999999
v 14.000001 9.000000 -5.999999
v 12.000001 9.000000 -5.999999
v 20.000000 9.000000 -9.999999
v 18.000000 9.000000 -9.999999
v 16.000000 9.000000 -9.999999
v 14.000001 9.000000 -9.999999
v 12.000001 9.000000 -9.999999
v 20.000000 0.000000 -5.999999
v 18.000000 0.000000 -5.999999
v 16.000000 0.000000 -5.999999
v 14.000001 0.000000 -5.999999
v 12.000001 0.000000 -5.999999
v 22.000000 3.467144 -5.999999
v 22.000000 3.532856 -5.999999
v 22.000000 6.717144 -5.999999
v 22.000000 6.782856 -5.999999
v 11.967146 3.467144 -5.999999
v 14.032856 3.467144 -5.999999
v 15.967146 3.467144 -5.999999
v 18.032856 3.467144 -5.999999
v 19.967146 3.467144 -5.999999
v 11.967146 6.782856 -5.999999
v 14.032856 6.782856 -5.999999
v 15.967146 6.782856 -5.999999
v 18.032856 6.782856 -5.999999
v 19.967146 6.782856 -5.999999
v 19.967146 3.467144 -6.121222
v 20.032856 3.532856 -6.121222
v 22.000000 3.532856 -6.121222
v 22.000000 3.467144 -6.121222
v 20.032856 6.717144 -6.121222
v 19.967146 6.782856 -6.121222
v 22.000000 6.782856 -6.121222
v 22.000000 6.717144 -6.121222
v 11.967146 3.467144 -6.121222
v 12.032856 3.532856 -6.121222
v 13.967146 3.532856 -6.121222
v 14.032856 3.467144 -6.121222
v 15.967146 3.467144 -6.121222
v 16.032856 3.532856 -6.121222
v 17.967146 3.532856 -6.121222
v 18.032856 3.467144 -6.121222
v 12.032856 6.717144 -6.121222
v 11.967146 6.782856 -6.121222
v 14.032856 6.782856 -6.121222
v 13.967146 6.717144 -6.121222
v 16.032856 6.717144 -6.121222
v 15.967146 6.782856 -6.121222
v 18.032856 6.782856 -6.121222
v 17.967146 6.717144 -6.121222
v 10.000001 3.459163 -9.999999
v 10.000001 3.540837 -9.999999
v 10.000001 6.709163 -9.999999
v 10.000001 6.790837 -9.999999
v 20.040838 6.790837 -9.999999
v 17.959164 6.790837 -9.999999
v 16.040838 6.790837 -9.999999
v 13.959164 6.790837 -9.999999
v 12.040838 6.790837 -9.999999
v 20.040838 3.459163 -9.999999
v 17.959164 3.459163 -9.999999
v 16.040838 3.459163 -9.999999
v 13.959164 3.459163 -9.999999
v 12.040838 3.459163 -9.999999
v 11.959164 6.709163 -9.899191
v 12.040838 6.790837 -9.899191
v 10.000001 6.790837 -9.899191
v 10.000001 6.709163 -9.899191
v 12.040838 3.459163 -9.899191
v 11.959164 3.540837 -9.899191
v 10.000001 3.540837 -9.899191
v 10.000001 3.459163 -9.899191
v 19.959164 6.709163 -9.899191
v 20.040838 6.790837 -9.899191
v 17.959164 6.790837 -9.899191
v 18.040838 6.709163 -9.899191
v 15.959164 6.709163 -9.899191
v 16.040838 6.790837 -9.899191
v 13.959164 6.790837 -9.899191
v 14.040838 6.709163 -9.899191
v 20.040838 3.459163 -9.899191
v 19.959164 3.540837 -9.899191
v 18.040838 3.540837 -9.899191
v 17.959164 3.459163 -9.899191
v 16.040838 3.459163 -9.899191
v 15.959164 3.540837 -9.899191
v 14.040838 3.540837 -9.899191
v 13.959164 3.459163 -9.899191
v 10.000001 8.986886 -9.999999
v 22.000000 8.986886 -9.999999
v 10.000001 8.986886 -5.999999
v 22.000000 8.986886 -5.999999
v 20.000000 8.986886 -9.999999
v 18.000000 8.986886 -9.999999
v 16.000000 8.986886 -9.999999
v 14.000001 8.986886 -9.999999
v 12.000001 8.986886 -9.999999
v 20.000000 8.986886 -5.999999
v 18.000000 8.986886 -5.999999
v 16.000000 8.986886 -5.999999
v 14.000001 8.986886 -5.999999
v 12.000001 8.986886 -5.999999
vt 0.000000 0.000000
vt 0.000000 0.000000
vt 0.000000 0.000000
vt 0.000000 0.000000
vt 0.669405 0.800000
vt 0.669405 0.800000
vt 0.669405 0.800000
vt 0.669405 0.800000
vt 0.336071 0.800000
vt 0.163929 0.800000
vt 0.163929 0.800000
vt 0.336071 0.800000
vt 1.000000 0.800000
vt 0.830595 0.800000
vt 0.830595 0.800000
vt 1.000000 0.800000
vt 0.807824 0.335602
vt 0.622731 0.335602
vt 0.622731 0.335602
vt 0.807824 0.335602
vt 0.163929 0.800000
vt 0.163929 0.800000
vt 0.336071 0.800000
vt 0.336071 0.800000
vt 0.000000 0.000000
vt 0.000000 0.000000
vt 0.000000 0.000000
vt 0.000000 0.000000
vt 0.830595 0.800000
vt 0.830595 0.800000
vt 0.497262 0.800000
vt 0.497262 0.800000
vt 0.000000 0.000000
vt 0.000000 0.000000
vt 0.497262 0.800000
vt 0.497262 0.800000
vt 0.000000 0.000000
vt 0.000000 0.000000
vt 1.000000 0.800000
vt 1.000000 0.800000
vt 0.836071 0.800000
vt 1.000000 0.800000
vt 1.000000 0.800000
vt 0.836071 0.800000
vt 0.169405 0.800000
vt 0.330595 0.800000
vt 0.502738 0.800000
vt 0.663929 0.800000
vt 0.330595 0.800000
vt 0.169405 0.800000
vt 0.663929 0.800000
vt 0.502738 0.800000
vt 0.622731 0.219953
vt 0.622731 0.219953
vt 0.807824 0.219954
vt 0.807824 0.219954
vt 0.000000 0.000000
vt 0.000000 0.000000
vt 0.807824 0.442176
vt 0.807824 0.557824
vt 0.807824 0.557824
vt 0.807824 0.442176
vt 0.622731 0.557824
vt 0.622731 0.557824
vt 0.000000 0.000000
vt 0.000000 0.000000
vt 0.807824 0.113380
vt 0.622731 0.113380
vt 0.622731 0.113380
vt 0.807824 0.113380
vt 0.622731 0.442176
vt 0.622731 0.442176
vt 0.622731 0.000000
vt 0.622731 0.000000
vt 0.807824 0.000000
vt 0.807824 0.000000
vt 0.625000 0.000000
vt 0.625000 0.108842
vt 0.805555 0.108842
vt 0.805555 0.000000
vt 0.625000 0.446713
vt 0.625000 0.553287
vt 0.625000 0.224491
vt 0.625000 0.331065
vt 0.805555 0.553287
vt 0.805555 0.446713
vt 0.805555 0.331065
vt 0.805555 0.224491
vt 0.627269 0.111111
vt 0.803287 0.111111
vt 0.803287 0.222222
vt 0.627269 0.222222
vt 0.627269 0.333333
vt 0.803287 0.333333
vt 0.803287 0.444444
vt 0.627269 0.444444
vt 0.627269 0.555556
vt 0.803287 0.555556
vt 0.790262 0.328306
vt 0.790262 0.432563
vt 0.609193 0.432563
vt 0.609193 0.328306
vt 0.120497 0.432997
vt 0.120497 0.545264
vt 0.000000 0.543478
vt 0.000000 0.434783
vt 0.978260 0.434783
vt 0.978260 0.543478
vt 0.790262 0.545698
vt 0.489130 0.326087
vt 0.489130 0.434783
vt 0.300698 0.432997
vt 0.300698 0.327872
vt 0.489130 0.543478
vt 0.300698 0.545264
vt 0.120497 0.000000
vt 0.120497 0.110481
vt 0.000000 0.108696
vt 0.000000 0.000000
vt 0.122283 0.652174
vt 0.000000 0.652174
vt 0.489130 0.108696
vt 0.489130 0.217391
vt 0.300698 0.215606
vt 0.300698 0.110481
vt 0.489130 0.652174
vt 0.298913 0.652174
vt 0.120497 0.215606
vt 0.120497 0.327872
vt 0.609193 0.000000
vt 0.609193 0.110915
vt 0.489130 0.108696
vt 0.489130 0.000000
vt 0.978260 0.108696
vt 0.978260 0.217391
vt 0.790262 0.215172
vt 0.790262 0.110915
vt 0.978260 0.326087
vt 0.609193 0.545698
vt 0.611413 0.652174
vt 0.489130 0.652174
vt 0.489130 0.543478
vt 0.978260 0.652174
vt 0.788043 0.652174
vt 0.609193 0.215172
vt 0.000000 0.217391
vt 0.000000 0.326087
vt 0.978260 0.000000
vt 0.790262 0.000000
vt 0.489130 0.217391
vt 0.489130 0.326087
vt 0.489130 0.434783
vt 0.489130 0.000000
vt 0.300698 0.000000
vt 0.978261 0.543478
vt 1.000000 0.543478
vt 1.000000 0.652174
vt 0.978261 0.652174
vt 0.978261 0.000000
vt 1.000000 0.000000
vt 1.000000 0.108696
vt 0.978261 0.108696
vt 1.000000 0.217391
vt 0.978261 0.217391
vt 1.000000 0.326087
vt 0.978261 0.326087
vt 1.000000 0.434783
vt 0.978261 0.434783
vt 0.833333 0.800000
vt 1.000000 0.800000
vt 1.000000 1.000000
vt 0.833333 1.000000
vt 0.000000 0.800000
vt 0.166667 0.800000
vt 0.166667 1.000000
vt 0.000000 1.000000
vt 0.333333 0.800000
vt 0.333333 1.000000
vt 0.500000 0.800000
vt 0.500000 1.000000
vt 0.666667 0.800000
vt 0.666667 1.000000
vt -0.001659 0.000000
vt 0.999104 0.003552
vt 0.997204 0.998091
vt 0.000000 1.000000
vt 0.047592 0.000000
vt 1.000000 0.099653
vt 0.965917 1.000000
vt 0.000000 0.987542
vt 0.010642 0.000000
vt 1.000000 0.073222
vt 0.996547 0.995570
vt 0.000000 1.000000
vt 0.175364 0.000000
vt 1.000000 0.015466
vt 0.790823 1.000000
vt 0.000000 0.889843
vt 0.084234 0.034169
vt 1.000000 0.000000
vt 0.901610 1.000000
vt 0.000000 0.956261
vt 0.108107 0.136915
vt 1.000000 0.000000
vt 0.851087 1.000000
vt 0.000000 0.955538
vn -1.0000 0.0000 0.0000
vn 1.0000 0.0000 0.0000
vn 0.0000 -1.0000 0.0000
vn 0.0000 1.0000 0.0000
vn 0.0000 0.0000 -1.0000
vn 0.0000 0.0000 1.0000
usemtl frames
s off
f 178/167/7 177/168/7 198/169/7 197/170/7
f 151/171/8 146/172/8 168/173/8 175/174/8
f 144/175/9 143/176/9 161/177/9 164/178/9
f 139/179/9 147/180/9 153/181/9 156/182/9
f 188/183/8 183/184/8 204/185/8 211/186/8
f 143/176/7 148/187/7 170/188/7 161/177/7
f 148/187/10 149/189/10 171/190/10 170/188/10
f 140/191/8 139/192/8 156/193/8 155/194/8
f 147/180/7 152/195/7 158/196/7 153/181/7
f 149/189/8 144/175/8 164/178/8 171/190/8
f 146/172/9 145/197/9 165/198/9 168/173/9
f 141/199/8 140/191/8 155/194/8 160/200/8
f 150/201/10 151/171/10 175/174/10 174/202/10
f 142/203/8 141/199/8 160/200/8 159/204/8
f 145/197/7 150/201/7 174/202/7 165/198/7
f 152/195/10 142/205/10 159/206/10 158/196/10
f 154/207/11 155/208/11 156/182/11 153/181/11
f 158/196/11 159/206/11 160/209/11 157/210/11
f 162/211/11 163/212/11 164/178/11 161/177/11
f 166/213/11 167/214/11 168/173/11 165/198/11
f 170/188/11 171/190/11 172/215/11 169/216/11
f 174/202/11 175/174/11 176/217/11 173/218/11
f 153/181/11 158/196/11 157/210/11 154/207/11
f 167/214/11 176/217/11 175/174/11 168/173/11
f 165/198/11 174/202/11 173/218/11 166/213/11
f 163/212/11 172/215/11 171/190/11 164/178/11
f 161/177/11 170/188/11 169/216/11 162/211/11
f 183/184/10 184/219/10 205/220/10 204/185/10
f 184/219/7 189/221/7 214/222/7 205/220/7
f 179/223/7 178/167/7 197/170/7 194/224/7
f 187/225/9 186/226/9 207/227/9 210/228/9
f 186/226/8 181/229/8 200/230/8 207/227/8
f 180/231/7 179/223/7 194/224/7 193/232/7
f 190/233/8 185/234/8 192/235/8 195/236/8
f 181/229/10 182/237/10 201/238/10 200/230/10
f 182/237/7 187/225/7 210/228/7 201/238/7
f 185/234/10 180/239/10 193/240/10 192/235/10
f 189/221/9 188/183/9 211/186/9 214/222/9
f 177/241/9 190/233/9 195/236/9 198/242/9
f 192/235/12 193/240/12 194/243/12 191/244/12
f 196/245/12 197/246/12 198/242/12 195/236/12
f 200/230/12 201/238/12 202/247/12 199/248/12
f 204/185/12 205/220/12 206/249/12 203/250/12
f 208/251/12 209/252/12 210/228/12 207/227/12
f 212/253/12 213/254/12 214/222/12 211/186/12
f 195/236/12 192/235/12 191/255/12 196/256/12
f 213/257/12 206/258/12 205/220/12 214/222/12
f 211/186/12 204/185/12 203/259/12 212/260/12
f 209/261/12 202/262/12 201/238/12 210/228/12
f 207/227/12 200/230/12 199/263/12 208/264/12
usemtl walls
f 188/265/12 187/266/12 182/267/12 183/268/12
f 149/269/11 148/270/11 128/271/11 127/272/11
f 120/273/12 119/274/12 186/275/12 187/266/12
f 136/276/11 137/277/11 144/278/11 145/279/11
f 137/277/11 138/280/11 143/281/11 144/278/11
f 142/282/11 152/283/11 124/284/11 114/285/11
f 148/270/11 118/286/11 113/287/11 128/271/11
f 134/288/11 135/289/11 146/290/11 147/291/11
f 135/289/11 136/276/11 145/279/11 146/290/11
f 138/280/11 103/292/11 117/293/11 143/281/11
f 147/291/11 146/290/11 151/294/11 152/283/11
f 145/279/11 144/278/11 149/269/11 150/295/11
f 180/296/12 185/297/12 133/298/12 111/299/12
f 123/300/12 122/301/12 189/302/12 190/303/12
f 122/301/12 121/304/12 188/265/12 189/302/12
f 121/304/12 120/273/12 187/266/12 188/265/12
f 181/305/12 116/306/12 112/307/12 129/308/12
f 119/274/12 102/309/12 115/310/12 186/275/12
f 190/303/12 189/302/12 184/311/12 185/297/12
f 186/275/12 115/310/12 116/306/12 181/305/12
f 143/281/11 117/293/11 118/286/11 148/270/11
f 152/283/11 151/294/11 125/312/11 124/284/11
f 151/294/11 150/295/11 126/313/11 125/312/11
f 150/295/11 149/269/11 127/272/11 126/313/11
f 101/314/12 123/300/12 190/303/12 177/315/12
f 185/297/12 184/311/12 132/316/12 133/298/12
f 184/311/12 183/268/12 131/317/12 132/316/12
f 183/268/12 182/267/12 130/318/12 131/317/12
f 182/267/12 181/305/12 129/308/12 130/318/12
f 110/319/11 134/288/11 147/291/11 139/320/11
f 224/321/9 219/322/9 216/323/9 218/324/9
f 217/325/9 215/326/9 223/327/9 228/328/9
f 228/328/9 223/327/9 222/329/9 227/330/9
f 227/330/9 222/329/9 221/331/9 226/332/9
f 226/332/9 221/331/9 220/333/9 225/334/9
f 225/334/9 220/333/9 219/322/9 224/321/9
usemtl floor
f 134/335/10 110/336/10 102/337/10 119/338/10
f 103/339/10 138/340/10 123/341/10 101/342/10
f 138/340/10 137/343/10 122/344/10 123/341/10
f 137/343/10 136/345/10 121/346/10 122/344/10
f 136/345/10 135/347/10 120/348/10 121/346/10
f 135/347/10 134/335/10 119/338/10 120/348/10
usemtl left_1
f 155/349/11 154/350/11 157/351/11 160/352/11
usemtl left_2
f 167/353/11 166/354/11 173/355/11 176/356/11
usemtl left_3
f 163/357/11 162/358/11 169/359/11 172/360/11
usemtl right_1
f 209/361/12 208/362/12 199/363/12 202/364/12
usemtl right_2
f 213/365/12 212/366/12 203/367/12 206/368/12
usemtl right_3
f 197/369/12 196/370/12 191/371/12 194/372/12
