# Blender v3.0.0 OBJ File: 'book.blend'
# www.blender.org
mtllib book.mtl
o Cube
v -0.096099 0.012127 -0.126596
v -0.096099 0.060178 -0.126596
v -0.096099 0.012127 0.126596
v -0.096099 0.060178 0.126596
v 0.096099 0.012127 -0.126596
v 0.096099 0.060178 -0.126596
v 0.096099 0.012127 0.126596
v 0.096099 0.060178 0.126596
v -0.097980 0.011318 -0.126596
v -0.097980 0.061629 -0.126596
v -0.097980 0.061628 0.126596
v -0.097980 0.011318 0.126596
v -0.099234 0.011318 -0.126596
v -0.099234 0.061629 -0.126596
v -0.099234 0.061628 0.126596
v -0.099234 0.011318 0.126596
v -0.100801 0.013181 -0.126596
v -0.100801 0.059765 -0.126596
v -0.100801 0.059765 0.126596
v -0.100801 0.013181 0.126596
v -0.097183 0.024300 -0.126596
v -0.097668 0.036473 -0.126596
v -0.097183 0.048646 -0.126596
v -0.096502 0.048646 0.126596
v -0.096770 0.036473 0.126596
v -0.096502 0.024300 0.126596
v -0.099064 0.023895 -0.126596
v -0.099549 0.036473 -0.126596
v -0.099064 0.049051 -0.126596
v -0.098382 0.049051 0.126596
v -0.098651 0.036473 0.126596
v -0.098382 0.023895 0.126596
v -0.100318 0.023895 -0.126596
v -0.100803 0.036473 -0.126596
v -0.100318 0.049051 -0.126596
v -0.099636 0.049051 0.126596
v -0.099905 0.036473 0.126596
v -0.099636 0.023895 0.126596
v -0.101863 0.024827 -0.126596
v -0.102342 0.036473 -0.126596
v -0.101863 0.048119 -0.126596
v -0.101863 0.048119 0.126596
v -0.102342 0.036473 0.126596
v -0.101863 0.024827 0.126596
v -0.096099 0.057661 -0.126596
v -0.097980 0.057703 -0.126596
v -0.099234 0.057703 -0.126596
v -0.101133 0.056131 -0.126596
v -0.096099 0.057661 0.126596
v 0.096099 0.057661 0.126596
v 0.096099 0.057661 -0.126596
v -0.097980 0.057703 0.126596
v -0.099234 0.057703 0.126596
v -0.101133 0.056131 0.126596
v -0.096099 0.015185 0.126596
v 0.096099 0.015185 0.126596
v 0.096099 0.015185 -0.126596
v -0.097980 0.014477 0.126596
v -0.099234 0.014477 0.126596
v -0.101067 0.016107 0.126596
v -0.096099 0.015185 -0.126596
v -0.097980 0.014477 -0.126596
v -0.099234 0.014477 -0.126596
v -0.101067 0.016107 -0.126596
v -0.094590 0.016254 -0.120199
v -0.094590 0.024908 -0.120199
v -0.094590 0.036466 -0.120199
v -0.094590 0.048023 -0.120199
v -0.094590 0.055974 0.120199
v -0.094590 0.048023 0.120199
v -0.094590 0.036466 0.120199
v -0.094590 0.024908 0.120199
v 0.087896 0.055974 0.120199
v 0.087896 0.048023 0.120199
v 0.087896 0.036466 0.120199
v 0.087896 0.024908 0.120199
v 0.087896 0.055974 -0.120199
v 0.087896 0.048023 -0.120199
v 0.087896 0.036466 -0.120199
v 0.087896 0.024908 -0.120199
v -0.094590 0.055974 -0.120199
v -0.094590 0.016254 0.120199
v 0.087896 0.016254 0.120199
v 0.087896 0.016254 -0.120199
vt 0.448756 0.959504
vt 0.454222 0.959294
vt 0.454222 0.033593
vt 0.448756 0.033803
vt 0.667158 0.127353
vt 0.667158 0.142243
vt 0.842950 0.142242
vt 0.842950 0.127353
vt 0.238683 0.119981
vt 0.247604 0.119981
vt 0.247604 0.042479
vt 0.238683 0.042479
vt 0.268954 0.091616
vt 0.268954 0.106736
vt 0.411016 0.106736
vt 0.411016 0.091616
vt 0.452775 0.971840
vt 0.016225 0.971840
vt 0.016225 0.021673
vt 0.452775 0.021673
vt 0.981015 0.969644
vt 0.546252 0.969644
vt 0.546252 0.023469
vt 0.981015 0.023469
vt 0.600785 0.418468
vt 0.596246 0.418468
vt 0.596247 0.443091
vt 0.600785 0.443091
vt 0.552760 0.064791
vt 0.543080 0.064577
vt 0.543080 0.952366
vt 0.552760 0.952580
vt 0.607592 0.412945
vt 0.607592 0.436780
vt 0.562405 0.081873
vt 0.569212 0.081545
vt 0.569212 0.050950
vt 0.562405 0.062258
vt 0.454256 0.018585
vt 0.457523 0.018585
vt 0.457523 0.971603
vt 0.454256 0.971603
vt 0.573750 0.081545
vt 0.573750 0.050950
vt 0.452824 0.013731
vt 0.446830 0.013731
vt 0.446830 0.952312
vt 0.452824 0.952312
vt 0.330983 0.344420
vt 0.328880 0.344420
vt 0.328880 0.677753
vt 0.330983 0.677753
vt 0.462653 0.971603
vt 0.462653 0.018585
vt 0.542458 0.971603
vt 0.539191 0.971603
vt 0.539191 0.018585
vt 0.542458 0.018585
vt 0.589613 0.405758
vt 0.590574 0.428566
vt 0.580623 0.093803
vt 0.579423 0.065474
vt 0.573750 0.418468
vt 0.580384 0.405759
vt 0.583267 0.337793
vt 0.577674 0.345056
vt 0.584998 0.247020
vt 0.579428 0.247020
vt 0.583267 0.156247
vt 0.577674 0.148985
vt 0.596246 0.081545
vt 0.589374 0.093803
vt 0.586730 0.156247
vt 0.594791 0.148985
vt 0.584998 0.247020
vt 0.593818 0.247020
vt 0.586730 0.337793
vt 0.594791 0.345056
vt 0.532819 0.971603
vt 0.518774 0.971603
vt 0.518774 0.018585
vt 0.532819 0.018585
vt 0.498357 0.971603
vt 0.498357 0.018585
vt 0.477940 0.971603
vt 0.477940 0.018585
vt 0.569212 0.418468
vt 0.573135 0.345056
vt 0.574890 0.247020
vt 0.573135 0.148985
vt 0.562405 0.412945
vt 0.566328 0.341900
vt 0.568082 0.247020
vt 0.566328 0.152141
vt 0.607592 0.081873
vt 0.600785 0.081545
vt 0.599329 0.148985
vt 0.606137 0.152141
vt 0.598356 0.247020
vt 0.605164 0.247020
vt 0.599329 0.345056
vt 0.606137 0.341900
vt 0.330983 0.823351
vt 0.339348 0.823366
vt 0.339348 0.744250
vt 0.331002 0.740035
vt 0.626825 0.035429
vt 0.628367 0.059060
vt 0.962700 0.059060
vt 0.978951 0.035429
vt 0.331046 0.968423
vt 0.339348 0.956907
vt 0.339348 0.902482
vt 0.331002 0.906688
vt 0.339348 0.685009
vt 0.331046 0.677665
vt 0.347528 0.677665
vt 0.339348 0.685014
vt 0.339348 0.744256
vt 0.347512 0.740050
vt 0.038502 0.057662
vt 0.053180 0.069835
vt 0.379719 0.069835
vt 0.382419 0.057662
vt 0.339348 0.823371
vt 0.347501 0.823371
vt 0.979053 0.488170
vt 0.965128 0.496592
vt 0.965128 0.813081
vt 0.979053 0.821503
vt 0.339348 0.902487
vt 0.347512 0.906703
vt 0.668081 0.101908
vt 0.668081 0.117241
vt 0.827613 0.117241
vt 0.827613 0.101908
vt 0.247605 0.119981
vt 0.254947 0.119981
vt 0.254947 0.042479
vt 0.247604 0.042479
vt 0.274720 0.046696
vt 0.274720 0.059139
vt 0.416782 0.059139
vt 0.416782 0.046696
vt 0.600785 0.050950
vt 0.596246 0.050950
vt 0.607592 0.062258
vt 0.590573 0.065474
vt 0.562405 0.436780
vt 0.569212 0.443091
vt 0.573750 0.443091
vt 0.579424 0.428566
vt 0.039098 0.069422
vt 0.042049 0.082725
vt 0.398902 0.082725
vt 0.414943 0.069422
vt 0.339348 0.956912
vt 0.347528 0.968423
vt 0.978951 0.970734
vt 0.962700 0.947102
vt 0.628367 0.947102
vt 0.626825 0.970734
vt 0.010360 0.804029
vt 0.010360 0.650779
vt 0.981601 0.650779
vt 0.981601 0.804029
vt 0.010360 0.428004
vt 0.981601 0.428004
vt 0.010360 0.205230
vt 0.981601 0.205230
vt 0.007364 0.832430
vt 0.007364 0.672927
vt 0.981118 0.672927
vt 0.981118 0.832430
vt 0.007364 0.441064
vt 0.981118 0.441064
vt 0.007364 0.209203
vt 0.981118 0.209203
vt 0.981601 0.804029
vt 0.981601 0.650778
vt 0.010360 0.650778
vt 0.010360 0.804029
vt 0.981601 0.428003
vt 0.010360 0.428003
vt 0.981601 0.205229
vt 0.010360 0.205229
vt 0.010360 0.038417
vt 0.981601 0.038417
vt 0.007364 0.035586
vt 0.981118 0.035586
vt 0.981601 0.038417
vt 0.010360 0.038417
vn 0.3954 -0.9185 -0.0000
vn 0.0000 0.0000 1.0000
vn 1.0000 0.0000 -0.0000
vn -0.0000 0.0000 -1.0000
vn -0.0000 -1.0000 -0.0000
vn 0.0000 1.0000 0.0000
vn 0.6108 0.7918 0.0000
vn -0.7653 -0.6437 0.0000
vn -0.9959 -0.0903 0.0000
vn -0.7653 0.6437 0.0000
vn -0.9959 0.0908 0.0000
vn -0.9992 0.0410 0.0000
vn -0.9992 -0.0410 0.0000
vn 0.9137 0.0187 -0.4059
vn 0.0000 0.9863 -0.1647
vn 0.9473 -0.0605 -0.3146
vn 0.9484 0.0579 -0.3117
vn 0.9651 0.0218 0.2609
vn -0.0000 -0.9669 -0.2550
vn 0.9523 0.0108 0.3050
vn 0.2014 -0.9795 -0.0000
vn 0.9523 -0.0108 0.3051
vn -0.9959 -0.0910 0.0000
vn -0.0000 -0.9669 0.2550
vn 0.9648 -0.0229 0.2621
vn 0.0000 0.9863 0.1647
vn 0.1291 0.9916 0.0000
vn 0.9137 -0.0187 -0.4059
usemtl Material
s off
f 3/1/1 12/2/1 9/3/1 1/4/1
f 55/5/2 3/6/2 7/7/2 56/8/2
f 56/9/3 7/10/3 5/11/3 57/12/3
f 57/13/4 5/14/4 1/15/4 61/16/4
f 1/17/5 5/18/5 7/19/5 3/20/5
f 6/21/6 2/22/6 4/23/6 8/24/6
f 58/25/2 59/26/2 16/27/2 12/28/2
f 2/29/7 10/30/7 11/31/7 4/32/7
f 55/33/2 58/25/2 12/28/2 3/34/2
f 45/35/4 46/36/4 10/37/4 2/38/4
f 16/39/8 20/40/8 17/41/8 13/42/8
f 46/36/4 47/43/4 14/44/4 10/37/4
f 12/45/5 16/46/5 13/47/5 9/48/5
f 10/49/6 14/50/6 15/51/6 11/52/6
f 64/53/9 17/41/9 20/40/9 60/54/9
f 14/55/10 18/56/10 19/57/10 15/58/10
f 59/26/2 60/59/2 20/60/2 16/27/2
f 47/43/4 48/61/4 18/62/4 14/44/4
f 63/63/4 64/64/4 39/65/4 33/66/4
f 33/66/4 39/65/4 40/67/4 34/68/4
f 34/68/4 40/67/4 41/69/4 35/70/4
f 53/71/2 54/72/2 42/73/2 36/74/2
f 36/74/2 42/73/2 43/75/2 37/76/2
f 37/76/2 43/75/2 44/77/2 38/78/2
f 48/79/11 41/80/11 42/81/11 54/82/11
f 41/80/12 40/83/12 43/84/12 42/81/12
f 40/83/13 39/85/13 44/86/13 43/84/13
f 62/87/4 63/63/4 33/66/4 27/88/4
f 27/88/4 33/66/4 34/68/4 28/89/4
f 28/89/4 34/68/4 35/70/4 29/90/4
f 61/91/4 62/87/4 27/88/4 21/92/4
f 21/92/4 27/88/4 28/89/4 22/93/4
f 22/93/4 28/89/4 29/90/4 23/94/4
f 49/95/2 52/96/2 30/97/2 24/98/2
f 24/98/2 30/97/2 31/99/2 25/100/2
f 25/100/2 31/99/2 32/101/2 26/102/2
f 52/96/2 53/71/2 36/74/2 30/97/2
f 30/97/2 36/74/2 37/76/2 31/99/2
f 31/99/2 37/76/2 38/78/2 32/101/2
f 22/103/14 67/104/14 66/105/14 21/106/14
f 61/107/15 65/108/15 84/109/15 57/110/15
f 45/111/16 81/112/16 68/113/16 23/114/16
f 21/106/17 66/105/17 65/115/17 61/116/17
f 55/117/18 82/118/18 72/119/18 26/120/18
f 51/121/19 77/122/19 81/123/19 45/124/19
f 26/120/20 72/119/20 71/125/20 25/126/20
f 50/127/21 73/128/21 77/129/21 51/130/21
f 25/126/22 71/125/22 70/131/22 24/132/22
f 4/133/2 49/134/2 50/135/2 8/136/2
f 8/137/3 50/138/3 51/139/3 6/140/3
f 6/141/4 51/142/4 45/143/4 2/144/4
f 11/145/2 15/146/2 53/71/2 52/96/2
f 4/147/2 11/145/2 52/96/2 49/95/2
f 18/56/11 48/79/11 54/82/11 19/57/11
f 15/146/2 19/148/2 54/72/2 53/71/2
f 35/70/4 41/69/4 48/61/4 47/43/4
f 29/90/4 35/70/4 47/43/4 46/36/4
f 23/94/4 29/90/4 46/36/4 45/35/4
f 1/149/4 9/150/4 62/87/4 61/91/4
f 9/150/4 13/151/4 63/63/4 62/87/4
f 13/151/4 17/152/4 64/64/4 63/63/4
f 38/78/2 44/77/2 60/59/2 59/26/2
f 39/85/23 64/53/23 60/54/23 44/86/23
f 26/102/2 32/101/2 58/25/2 55/33/2
f 32/101/2 38/78/2 59/26/2 58/25/2
f 49/153/24 69/154/24 73/155/24 50/156/24
f 24/132/25 70/131/25 69/157/25 49/158/25
f 56/159/26 83/160/26 82/161/26 55/162/26
f 57/110/27 84/109/27 83/160/27 56/159/27
f 23/114/28 68/113/28 67/104/28 22/103/28
usemtl Material.001
f 77/163/4 78/164/4 68/165/4 81/166/4
f 78/164/4 79/167/4 67/168/4 68/165/4
f 79/167/4 80/169/4 66/170/4 67/168/4
f 73/171/3 74/172/3 78/173/3 77/174/3
f 74/172/3 75/175/3 79/176/3 78/173/3
f 75/175/3 76/177/3 80/178/3 79/176/3
f 69/179/2 70/180/2 74/181/2 73/182/2
f 70/180/2 71/183/2 75/184/2 74/181/2
f 71/183/2 72/185/2 76/186/2 75/184/2
f 80/169/4 84/187/4 65/188/4 66/170/4
f 76/177/3 83/189/3 84/190/3 80/178/3
f 72/185/2 82/191/2 83/192/2 76/186/2
